<?xml version="1.0" standalone="no"?>
<!DOCTYPE svg PUBLIC "-//W3C//DTD SVG 20010904//EN"
 "http://www.w3.org/TR/2001/REC-SVG-20010904/DTD/svg10.dtd">
<svg version="1.0" xmlns="http://www.w3.org/2000/svg"
 width="500.000000px" height="350.000000px" viewBox="0 0 500.000000 350.000000"
 preserveAspectRatio="xMidYMid meet">
<metadata>
Created by potrace 1.16, written by Peter Selinger 2001-2019
</metadata>
<g transform="translate(0.000000,350.000000) scale(0.100000,-0.100000)"
fill="#000000" stroke="none">
<path d="M820 2869 c-62 -28 -225 -190 -256 -254 -33 -70 -33 -170 0 -240 34
-71 1748 -1784 1816 -1814 66 -30 179 -29 245 3 71 34 1784 1748 1814 1816 28
62 28 169 0 230 -28 62 -190 225 -254 256 -62 30 -133 31 -195 3 -35 -15 -210
-185 -767 -742 l-723 -722 -722 722 c-558 557 -733 727 -768 742 -58 26 -132
26 -190 0z"/>
</g>
</svg>
